<svg width="2067" height="445" viewBox="0 0 2067 445" fill="none" xmlns="http://www.w3.org/2000/svg">
<g style="mix-blend-mode:hard-light" filter="url(#filter0_f_5353_84307)">
<rect x="12" y="10.2344" width="2040" height="424" rx="212" fill="#FF3780" fill-opacity="0.2"/>
<rect x="14" y="12.2344" width="2036" height="420" rx="210" stroke="#FB37FF" stroke-width="4"/>
</g>
<path d="M195.627 433.638C87.2201 423.978 2.23437 332.905 2.23437 221.985C2.23436 111.065 87.2201 19.9918 195.627 10.3323C196.747 10.2325 197.734 11.1255 197.734 12.2872L197.734 134.485C197.734 135.602 196.773 136.799 195.37 137.111C187.184 138.936 170.461 145.074 155.745 158.271C140.969 171.524 128.234 191.891 128.234 221.985C128.234 251.293 141.27 271.268 156.169 284.409C171.015 297.503 187.717 303.828 195.289 306.015C196.679 306.416 197.734 307.789 197.734 308.985L197.734 431.683C197.734 432.845 196.747 433.738 195.627 433.638Z" fill="#CE1313" stroke="black" stroke-width="4"/>
<path d="M1871.11 10.3309C1979.51 19.9904 2064.5 111.063 2064.5 221.984C2064.5 332.904 1979.51 423.977 1871.11 433.636C1869.99 433.736 1869 432.843 1869 431.682L1869 309.483C1869 308.367 1869.96 307.17 1871.36 306.857C1879.55 305.032 1896.27 298.895 1910.99 285.697C1925.77 272.445 1938.5 252.077 1938.5 221.983C1938.5 192.676 1925.46 172.7 1910.57 159.56C1895.72 146.466 1879.02 140.141 1871.45 137.954C1870.06 137.553 1869 136.179 1869 134.983L1869 12.2858C1869 11.1241 1869.99 10.2311 1871.11 10.3309Z" fill="white" stroke="black" stroke-width="4"/>
<circle cx="198.5" cy="221.734" r="85" transform="rotate(-90 198.5 221.734)" fill="white" stroke="black" stroke-width="3"/>
<path d="M198.5 170.734C226.667 170.734 249.5 193.568 249.5 221.734C249.5 249.901 226.667 272.734 198.5 272.734C170.333 272.734 147.5 249.901 147.5 221.734C147.5 193.568 170.333 170.734 198.5 170.734Z" stroke="black" stroke-width="3"/>
<path d="M513.56 230.06C515.52 230.2 515.94 230.2 518.88 230.9C524.48 232.16 529.94 233 538.34 234.12C537.78 238.88 537.64 242.38 537.64 246.02C537.64 268.56 551.5 280.74 576.98 280.74C590.14 280.74 600.64 277.66 608.62 271.5C617.16 264.92 622.06 255.26 622.06 245.32C622.06 238.88 619.68 230.9 616.04 224.74C614.5 222.08 612.96 219.98 609.46 215.92C602.88 218.3 599.94 218.86 592.1 219.42C600.5 227.12 604.7 234.96 604.7 243.08C604.7 256.8 594.48 264.64 576.7 264.64C569 264.64 563.4 262.96 559.34 259.46C555.7 256.24 554.16 251.9 554.16 245.04C554.16 242.52 554.44 238.88 554.86 235.1C560.32 235.38 561.58 235.38 563.82 235.38C570.4 235.38 578.66 234.82 584.82 234.12C587.2 233.7 587.62 233.7 589.02 233.7L589.44 217.6C582.72 219.42 572.64 220.4 562.7 220.4C561.16 220.4 560.04 220.4 555.84 220.26C556.68 213.54 557.1 210.74 558.5 200.52C564.52 200.66 565.78 200.66 567.18 200.66C572.22 200.66 576.7 200.38 586.78 199.54C589.86 199.26 590.56 199.12 592.38 198.98L592.94 182.6C584.96 184.56 576.84 185.26 561.02 185.54C563.54 168.32 563.96 166.22 565.5 161.88L546.88 160.2C547.02 160.9 547.02 161.18 547.02 161.6C547.02 165.8 546.18 173.08 544.22 184.84C534.7 184 524.76 182.04 518.88 179.8L517.48 195.2C519.58 195.62 520.28 195.76 522.24 196.18C531.76 198.28 534 198.56 542.26 199.68C541.56 204.86 540.3 214.24 539.74 219.28C525.46 217.32 521.54 216.48 515.1 213.96L513.56 230.06ZM674.14 177.14C694.72 182.32 714.04 184.84 739.52 185.96L741.9 168.74C740.22 168.74 738.68 168.74 737.98 168.74C715.86 168.74 695.14 165.8 679.6 160.62L674.14 177.14ZM661.82 223.9C673.44 219.14 701.44 214.24 717.26 214.24C731.82 214.24 739.24 219.56 739.24 230.06C739.24 239.72 733.22 248.54 722.16 254.7C711.38 260.72 696.26 264.64 680.02 265.34C684.36 271.92 685.9 275.42 687.3 282.84C710.12 279.2 719.92 276.26 731.4 269.68C748.34 260.02 758 245.46 758 229.5C758 218.44 753.1 209.06 744.42 203.88C737.98 199.96 729.3 198.14 717.96 198.14C706.06 198.14 693.88 199.4 674 202.9C661.4 205.14 661.4 205.14 657.76 205.28L661.82 223.9ZM862.02 277.52C861.18 271.78 860.9 266.6 860.9 259.18V188.48C860.9 180.08 861.18 173.64 862.02 165.38C856.98 165.94 854.88 166.08 847.74 166.08H834.86C828.28 166.08 825.2 165.94 820.86 165.24V183.02C826.04 182.46 830.1 182.18 835.28 182.18H842V259.18C842 266.6 841.72 272.06 840.88 277.52H862.02ZM969.82 203.04V216.2C969.82 219.14 969.54 222.64 969.26 225.02C971.78 224.88 973.6 224.88 979.06 224.88H1017.98C1023.58 224.88 1023.86 224.88 1027.08 225.02C1026.8 222.64 1026.66 219.7 1026.66 216.2V203.04H1040.1C1046.54 203.04 1049.34 203.18 1052.56 203.6V189.74C1048.92 190.3 1045.84 190.44 1040.1 190.44H1026.66V180.64H1037.44C1044.02 180.64 1047.52 180.78 1052.14 181.2V166.64C1047.94 167.2 1043.04 167.48 1035.2 167.48H1000.48V164.54C1000.48 161.04 1000.62 158.8 1001.18 156.42H984.52C984.94 159.08 985.22 161.32 985.22 164.4V167.48H950.36C944.34 167.48 939.44 167.2 934.54 166.78C934.96 171.82 935.1 175.46 935.1 185.82C935.1 219 934.12 234.4 931.04 248.96C929.22 258.2 926.98 264.36 922.36 272.9C927.26 276.96 930.2 280.18 934.12 285.78C940.42 274.44 943.5 265.62 946.02 252.46C948.4 239.72 949.66 224.46 949.94 203.04H969.82ZM950.08 190.44V180.64H969.82V190.44H950.08ZM984.52 190.44V180.64H1011.96V190.44H984.52ZM984.52 203.04H1011.96V212.7H984.52V203.04ZM1030.44 232.44C1027.08 232.72 1024.56 232.86 1018.82 232.86H969.96C962.54 232.86 958.48 232.72 954.98 232.16V245.32C957.92 245.04 960.02 244.9 964.92 244.76C971.92 254.42 976.12 258.62 983.96 264.64C972.34 268.98 961.56 271.22 943.92 272.48C947.14 278.64 948.26 281.58 949.38 286.9C970.66 283.68 982.7 280.18 997.26 273.18C1010.28 280.04 1024.28 283.82 1047.8 286.76C1049.34 280.6 1051.02 276.12 1053.68 270.94C1036.6 270.66 1024.42 268.7 1012.24 264.36C1020.64 258.62 1027.78 252.18 1035.34 243.36C1036.6 241.96 1036.74 241.82 1038 240.56L1030.44 232.44ZM1015.46 244.76C1009.16 250.78 1005.52 253.58 998.1 257.92C990.54 253.44 986.06 249.94 981.86 244.76H1015.46ZM1173.24 186.24L1180.38 183.44C1176.46 174.2 1173.38 168.6 1167.92 161.32L1157.7 165.1C1162.32 171.4 1165.68 177.42 1168.62 184.42L1169.32 185.82L1169.74 186.94C1168.06 187.22 1166.66 187.22 1162.04 187.22L1130.96 187.36C1131.38 182.46 1131.38 182.32 1131.52 178.54L1131.94 170.98L1132.08 168.32C1132.08 167.34 1132.22 166.64 1132.22 165.8C1132.36 163.56 1132.5 163.28 1132.78 161.32L1114.02 160.9C1114.44 163.56 1114.44 164.68 1114.44 166.36V169.86C1114.44 173.92 1114.16 182.18 1113.74 187.36L1089.24 187.5C1080.84 187.5 1078.32 187.22 1073.7 186.52L1073.84 203.6C1078.18 203.04 1080.14 202.9 1088.96 202.9H1112.2C1109.26 232.02 1094.7 253.02 1067.96 266.88C1073.56 271.78 1075.94 274.44 1080.56 281.58C1111.22 262.26 1126.2 238.04 1129.56 202.76H1162.18C1162.18 218.72 1160.78 237.9 1159.1 247.56C1156.86 259.74 1154.76 262.82 1148.74 262.82C1144.12 262.82 1138.52 261.84 1130.26 259.46C1132.64 265.62 1133.34 268.98 1133.48 277.38C1140.76 278.64 1145.52 279.06 1150.84 279.06C1167.64 279.06 1172.54 273.32 1176.18 249.1C1177.58 239.86 1179.12 218.16 1179.54 202.34C1179.68 197.72 1179.96 195.34 1181.08 193.1L1173.24 186.24ZM1197.88 176.16C1194.52 167.9 1191.3 162.3 1185.56 154.88L1175.62 158.8C1180.24 165.1 1184.3 172.24 1187.66 180.5L1197.88 176.16ZM1305.4 161.32C1300.64 163.98 1296.58 165.52 1288.46 167.9C1271.24 172.8 1247.3 176.02 1228.54 176.02C1226.44 176.02 1224.2 176.02 1219.86 175.74C1222.94 182.46 1223.64 184.56 1225.04 190.86C1248.14 189.74 1252.48 189.32 1263.82 187.64C1263.82 197.44 1263.82 202.9 1263.54 208.78H1227.7C1218.18 208.78 1215.8 208.64 1210.62 207.8V224.6C1215.8 224.04 1218.46 223.9 1227.42 223.9H1262C1261.44 228.52 1261.02 230.9 1260.46 233.28C1258.08 242.38 1252.76 250.36 1244.36 257.08C1238.06 262.26 1232.74 265.2 1222.66 268.84C1228.54 273.88 1230.78 276.54 1234.84 283.68C1241.28 280.74 1243.94 279.2 1247.86 276.68C1257.66 270.38 1265.78 262.54 1270.68 254.42C1275.58 246.3 1278.52 236.92 1280.06 223.9H1311C1319.96 223.9 1322.62 224.04 1327.8 224.6V207.8C1322.62 208.64 1320.24 208.78 1310.72 208.78H1281.04C1281.32 204.02 1281.32 204.02 1281.46 185.12C1292.38 183.02 1296.86 181.9 1304.84 179.38C1314.92 176.02 1314.92 176.02 1316.6 175.6L1305.4 161.32ZM1382.54 207.24L1370.92 209.2C1365.6 210.04 1362.1 210.46 1357.62 210.46L1360.56 226.42C1364.62 225.02 1367.98 224.18 1372.88 223.34L1384.92 221.38L1394.44 273.6C1395.28 278.22 1395.56 281.3 1395.56 284.94L1413.06 281.86C1411.8 278.22 1411.8 278.22 1410.4 270.52L1400.46 218.72L1433.36 213.26C1436.86 212.7 1436.86 212.7 1438.54 212.28C1432.8 222.78 1425.1 230.9 1414.74 237.34C1420.62 240.42 1422.72 241.96 1427.76 247.28C1441.2 236.92 1449.18 226.42 1455.34 210.88C1456.74 207.52 1457.58 205.98 1458.84 204.16L1449.04 195.34C1446.24 196.46 1443.86 197.16 1439.8 197.72L1397.94 204.72L1395.84 193.94C1394.86 189.04 1394.44 185.96 1394.44 183.16L1377.78 185.68C1379.04 188.76 1379.32 190.16 1380.44 196.18L1382.54 207.24ZM1534.16 216.9C1536.4 215.64 1536.4 215.64 1539.9 213.26C1542.7 211.44 1552.78 203.88 1555.3 201.78C1560.06 197.72 1570.28 188.62 1577.28 182.18C1581.2 178.54 1582.18 177.7 1584.56 176.44L1575.88 164.12C1573.64 165.24 1572.1 165.52 1567.2 165.94C1553.62 166.92 1536.54 167.62 1524.64 167.62C1516.94 167.62 1512.88 167.34 1508.12 166.78L1508.82 183.58C1511.48 183.16 1512.46 183.02 1515.54 182.88C1540.88 181.76 1549.84 181.2 1555.16 180.5L1555.3 180.64C1554.46 181.48 1553.06 182.88 1552.78 183.16C1542.14 193.94 1523.94 209.62 1510.92 219.56C1501.68 226.56 1496.08 230.34 1491.18 232.72L1500.7 247.84C1517.5 232.58 1537.94 224.32 1558.38 224.32C1575.32 224.32 1586.1 231.46 1586.1 242.38C1586.1 252.32 1581.06 258.34 1569.44 262.68C1567.34 256.66 1565.8 253.58 1563 250.08C1557.12 242.66 1548.58 238.6 1538.78 238.6C1524.78 238.6 1514.7 247 1514.7 258.62C1514.7 264.92 1517.78 270.8 1523.1 274.72C1528.7 278.92 1538.5 281.16 1550.26 281.16C1563.14 281.16 1575.04 278.36 1584.14 273.18C1596.6 266.18 1603.18 255.54 1603.18 242.24C1603.18 223.06 1587.78 210.74 1563.84 210.74C1553.34 210.74 1547.18 212.14 1534.44 217.18L1534.16 216.9ZM1554.32 266.74C1550.4 267.3 1549.7 267.3 1547.04 267.3C1536.68 267.3 1530.38 264.08 1530.38 258.48C1530.38 254.56 1533.6 252.04 1538.64 252.04C1546.48 252.04 1551.8 257.08 1554.32 266.74Z" fill="black"/>
<defs>
<filter id="filter0_f_5353_84307" x="2.13287" y="0.367243" width="2059.73" height="443.734" filterUnits="userSpaceOnUse" color-interpolation-filters="sRGB">
<feFlood flood-opacity="0" result="BackgroundImageFix"/>
<feBlend mode="normal" in="SourceGraphic" in2="BackgroundImageFix" result="shape"/>
<feGaussianBlur stdDeviation="4.93357" result="effect1_foregroundBlur_5353_84307"/>
</filter>
</defs>
</svg>
